<svg xmlns="http://www.w3.org/2000/svg" viewBox="0 0 1440 320">
  <path fill="#4CAF50" fill-opacity="1" d="M0,160L30,144C60,128,120,96,180,96C240,96,300,128,360,160C420,192,480,224,540,218.7C600,213,660,171,720,154.7C780,139,840,149,900,154.7C960,160,1020,160,1080,149.3C1140,139,1200,117,1260,128C1320,139,1380,181,1410,202.7L1440,224L1440,320L1410,320C1380,320,1320,320,1260,320C1200,320,1140,320,1080,320C1020,320,960,320,900,320C840,320,780,320,720,320C660,320,600,320,540,320C480,320,420,320,360,320C300,320,240,320,180,320C120,320,60,320,30,320L0,320Z"></path>
</svg>
